<svg fill="#000000" xmlns="http://www.w3.org/2000/svg"  viewBox="0 0 50 50" width="50px" height="50px"><path fill="none" stroke="#000000" stroke-linecap="round" stroke-miterlimit="10" stroke-width="2" d="M28.081 29.919L24 34 22 34 22 36 20 38 18 38 18 40 15 43 12 43 12 46 9 49 3 49 1 47 1 41 19.96 22.04"/><path fill="none" stroke="#000000" stroke-linecap="round" stroke-miterlimit="10" stroke-width="2" d="M49,16c0,8.281-6.719,15-15,15s-15-6.719-15-15c0-8.282,6.719-15,15-15S49,7.718,49,16z"/><path fill="none" stroke="#000000" stroke-linecap="round" stroke-miterlimit="10" stroke-width="2" d="M41.071 23.071L26.929 8.929c3.904-3.904 10.238-3.904 14.143 0S44.976 19.167 41.071 23.071zM1.61 46.39L18.282 29.718"/></svg>