<svg width="66" height="66" viewBox="0 0 66 66" fill="none" xmlns="http://www.w3.org/2000/svg">
<path d="M62.6361 32.7561C62.6888 32.6622 62.7416 32.5684 62.7944 32.4745C66.9349 25.1316 65.5274 18.1934 62.4601 14.8621C61.3575 13.6598 59.0234 11.5367 55.6042 10.5514C54.8418 7.20251 53.0061 4.42253 50.6543 3.07946C44.4729 -0.45123 38.4498 -0.357391 32.7551 3.36098C32.6613 3.3082 32.5674 3.25541 32.4736 3.20263C25.1309 -0.93802 18.1929 0.469565 14.8617 3.53106C13.6594 4.63367 11.5364 6.96792 10.5511 10.3872C7.19645 11.1555 4.41655 12.9912 3.07939 15.3372C-0.451202 21.5247 -0.357366 27.548 3.36089 33.2428C3.30811 33.3367 3.25533 33.4305 3.20255 33.5244C-0.937977 40.8673 0.469566 47.8055 3.53684 51.1368C4.63941 52.3391 6.97359 54.4622 10.3927 55.4475C11.1552 58.7964 12.9908 61.5764 15.3426 62.9194C18.3571 64.6378 21.3305 65.5 24.2453 65.5C27.3185 65.5 30.3271 64.544 33.2477 62.6379C33.3416 62.6907 33.4354 62.7435 33.5292 62.7963C40.8719 66.9369 47.8099 65.5235 51.1411 62.462C52.3434 61.3594 54.4664 59.0251 55.4517 55.6058C58.8005 54.8434 61.5804 53.0077 62.9234 50.6558C66.454 44.4801 66.3543 38.4568 62.6361 32.7561ZM53.833 43.4361C55.481 41.964 58.2551 39.2427 60.7828 35.6592C63.0818 39.9582 62.9 44.4859 60.2491 49.1427C59.5043 50.4506 57.9384 51.5825 55.9854 52.257C56.0851 49.4359 55.3637 46.4741 53.833 43.4361ZM12.1639 22.5687C10.5159 24.0408 7.74187 26.7621 5.21416 30.3456C2.91517 26.0466 3.09698 21.5188 5.74785 16.8621C6.49268 15.5542 8.05857 14.4223 10.0115 13.7478C9.91183 16.5688 10.6332 19.5247 12.1639 22.5687ZM16.9437 5.80079C18.404 4.45772 20.6913 3.68942 23.2248 3.68942C25.43 3.68942 27.7583 4.27591 30.0162 5.38438C26.7496 8.02947 24.3509 10.827 23.0489 12.4986C19.5476 10.5045 16.3455 10.0118 14.0348 10.0118C14.0172 10.0118 13.9937 10.0118 13.9761 10.0118C14.7855 8.05293 16.0112 6.65707 16.9437 5.80079ZM60.6186 30.0171C57.9736 26.7504 55.1761 24.3516 53.5046 23.0496C55.5162 19.5189 55.9971 16.2932 55.9913 13.9765C57.9442 14.7917 59.3401 16.0175 60.2022 16.95C61.5452 18.4104 62.3135 20.6977 62.3135 23.2314C62.3135 25.4307 61.727 27.765 60.6186 30.0171ZM24.0283 33.02C21.0138 34.1871 17.2838 36.3571 14.199 40.3746C12.463 38.9963 9.58927 36.4744 7.04983 33.1255C9.34882 29.63 12.0759 26.8501 13.7591 25.29C16.2282 28.8911 19.6708 31.4834 24.0283 33.02ZM34.6084 31.4247C34.9426 27.0143 36.5965 19.6538 43.558 15.6011C46.8422 13.6891 49.9799 12.8798 52.8829 13.1847C53.053 15.7243 52.5545 19.4602 49.5342 23.5188C43.9978 30.9496 35.7754 31.3954 34.6084 31.4247ZM31.3827 34.58C31.0484 38.9905 29.3946 46.351 22.4331 50.4036C19.1488 52.3156 16.0112 53.1308 13.1081 52.82C12.9381 50.2805 13.4366 46.5445 16.4569 42.486C21.9991 35.0551 30.2215 34.6035 31.3827 34.58ZM58.9471 32.8792C56.6481 36.3747 53.921 39.1547 52.2378 40.7148C49.7746 37.1137 46.3261 34.5155 41.9686 32.9789C44.9831 31.8118 48.7131 29.6418 51.798 25.6243C53.5339 27.0084 56.4077 29.5303 58.9471 32.8792ZM43.4348 12.1701C41.9569 10.5221 39.2415 7.74795 35.6581 5.22016C39.957 2.92111 44.4846 3.10292 49.1412 5.75387C50.4491 6.49872 51.581 8.06466 52.2554 10.0177C49.4286 9.91211 46.4728 10.6335 43.4348 12.1701ZM32.9779 24.029C31.8109 21.0144 29.6409 17.2843 25.6235 14.1994C27.0018 12.4634 29.5236 9.59541 32.8724 7.05003C36.3678 9.34908 39.1477 12.0763 40.7077 13.7595C37.1126 16.2287 34.5145 19.6772 32.9779 24.029ZM13.1785 13.1144C15.7179 12.9502 19.4538 13.4428 23.5122 16.4633C30.9487 21.9998 31.3945 30.2224 31.4179 31.3895C27.0076 31.0552 19.6473 29.4013 15.5948 22.4396C13.6829 19.1553 12.8735 16.0175 13.1785 13.1144ZM5.37837 35.9876C8.02338 39.2544 10.815 41.6532 12.4923 42.9552C10.4807 46.4859 9.99981 49.7116 10.0057 52.0282C8.0527 51.213 6.65689 49.9872 5.79477 49.0547C4.45174 47.5943 3.68346 45.307 3.68346 42.7734C3.68346 40.574 4.26993 38.2398 5.37837 35.9876ZM22.5621 53.8346C24.0342 55.4827 26.7554 58.2568 30.3388 60.7846C26.0399 63.0836 21.5123 62.9018 16.8557 60.2509C15.5479 59.506 14.416 57.9401 13.7415 55.9871C16.5625 56.0926 19.5242 55.3713 22.5621 53.8346ZM33.019 41.9699C34.1861 44.9844 36.3561 48.7145 40.3734 51.7995C38.9952 53.5355 36.4733 56.4093 33.1246 58.9489C29.6292 56.6498 26.8493 53.9226 25.2892 52.2394C28.8843 49.7761 31.4824 46.3275 33.019 41.9699ZM42.9539 53.5121C46.4845 55.5237 49.7277 56.0105 52.0267 55.9988C51.2115 57.9518 49.9858 59.3477 49.0533 60.2098C47.5929 61.5529 45.3057 62.3212 42.7721 62.3212C40.5669 62.3212 38.2386 61.7347 35.9807 60.6262C39.2474 57.9753 41.6461 55.1836 42.9539 53.5121ZM52.8184 52.8904C50.279 53.0605 46.5431 52.5619 42.4847 49.5415C35.0482 44.005 34.6025 35.7824 34.579 34.6152C38.9893 34.9495 46.3496 36.6034 50.4022 43.5651C52.3082 46.8495 53.1234 49.9872 52.8184 52.8904Z" fill="url(#paint0_radial_261_6141)"/>
<defs>
<radialGradient id="paint0_radial_261_6141" cx="0" cy="0" r="1" gradientUnits="userSpaceOnUse" gradientTransform="translate(32.9979 33.0016) scale(32.5018 32.5028)">
<stop offset="0.3959" stop-color="#B21180"/>
<stop offset="0.7522" stop-color="#0098CB"/>
</radialGradient>
</defs>
</svg>
