<?xml version="1.0" ?><svg width="41" height="41" viewBox="0 0 41 41" fill="none" xmlns="http://www.w3.org/2000/svg">
    <path d="M26.4792 10.25V28.1875C26.4792 31.9629 23.4212 35.0208 19.6458 35.0208C15.8704 35.0208 12.8125 31.9629 12.8125 28.1875V10.25C12.8125 7.89246 14.7258 5.97913 17.0833 5.97913C19.4408 5.97913 21.3542 7.89246 21.3542 10.25V26.4791C21.3542 27.4187 20.5854 28.1875 19.6458 28.1875C18.7062 28.1875 17.9375 27.4187 17.9375 26.4791V10.25H15.375V26.4791C15.375 28.8366 17.2883 30.75 19.6458 30.75C22.0033 30.75 23.9167 28.8366 23.9167 26.4791V10.25C23.9167 6.47454 20.8587 3.41663 17.0833 3.41663C13.3079 3.41663 10.25 6.47454 10.25 10.25V28.1875C10.25 33.3808 14.4525 37.5833 19.6458 37.5833C24.8392 37.5833 29.0417 33.3808 29.0417 28.1875V10.25H26.4792Z" fill="#003A70"/>
</svg>
